# xmcd
#
# Track frame offsets: 
#        150
#        11603
#        22676
#        42607
#        53432
#        63781
#        80555
#        94152
#        105454
#        119629
#        134888
#        143794
#        158444
#        171683
#
# Disc length: 2425 seconds
#
# Revision: 0
# Processed by: cddbd v1.5.2PL0 Copyright (c) Steve Scherf et al.
# Submitted via: ExactAudioCopyFreeDBPlugin 1.0
#
DISCID=b909770e
DTITLE=Stone Country - Stone Country
DYEAR=2017
DGENRE=Country
TTITLE0=Love Psalm
TTITLE1='Lizbeth Peach
TTITLE2=Magnolias
TTITLE3=Mantra
TTITLE4=Everywhere I Turn
TTITLE5=Woman Don't You Weep
TTITLE6=Time Isn't There Anymore
TTITLE7=Life Stands Daring Me
TTITLE8=Ballad Of Bonnie and Clyde
TTITLE9=The Love You Save (May Be Your Own)
TTITLE10=Why Baby Why
TTITLE11=Angelica
TTITLE12=This Wheel's On Fire
TTITLE13=Million Dollar Bash
EXTD=
EXTT0=
EXTT1=
EXTT2=
EXTT3=
EXTT4=
EXTT5=
EXTT6=
EXTT7=
EXTT8=
EXTT9=
EXTT10=
EXTT11=
EXTT12=
EXTT13=
PLAYORDER=
